<svg width="137" height="237" viewBox="0 0 297 237" xmlns="http://www.w3.org/2000/svg">
    <g>
        <path d="M29.7791 40.7758C41.3091 45.0655 51.6423 51.82 60.1151 60.3875C74.8446 75.2593 84.0284 95.6176 84.3364 118.121H118.453C118.322 88.8038 107.539 62.0228 89.7638 41.4157C81.2436 31.5091 71.0882 23.0363 59.7359 16.4003C42.1979 6.12638 21.7803 0.248779 0 0.248779V35.5618C0.1896 35.5499 0.39105 35.5499 0.5925 35.5499C10.8546 35.5499 20.6901 37.3985 29.7791 40.7758Z" fill="#cd5ff8"/>
        <path d="M59.5344 178.828C44.5442 163.684 35.3011 142.876 35.3011 119.898C35.3011 119.306 35.313 118.713 35.3249 118.121H0.011848C-1.98872e-06 118.512 0 118.915 0 119.306C0 149.44 11.2457 176.944 29.7791 197.848C38.0741 207.221 47.8503 215.279 58.7286 221.631C72.5694 229.736 88.1877 235.104 104.873 237H118.713V203.666C107.942 203.619 97.644 201.545 88.1996 197.8C77.345 193.499 67.6043 186.981 59.5344 178.828Z" fill="#7c2fc1"/>
        <path d="M178.129 60.5061C186.282 52.0689 196.2 45.35 207.28 40.9181C216.488 37.2327 226.513 35.1353 237 34.9693V0H228.658C209.911 1.422 192.397 7.21665 177.11 16.353C165.995 22.989 156.064 31.3906 147.71 41.1787C129.994 61.8807 119.306 88.7447 119.306 118.121C119.306 147.497 130.942 176.719 150.045 197.753C158.423 206.972 168.234 214.876 179.136 221.085C196.212 230.838 215.954 236.455 237 236.585V202.469C226.809 202.303 217.056 200.324 208.062 196.829C197.184 192.61 187.42 186.187 179.29 178.117C164.039 162.938 154.595 141.927 154.595 118.713C154.595 118.512 154.595 118.322 154.607 118.121C154.749 95.748 163.684 75.4371 178.129 60.5061Z" fill="#7c2fc1"/>
        <!-- Animation rotation autour du centre -->
        <animateTransform attributeName="transform"
                          attributeType="XML"
                          type="rotate"
                          from="0 118.5 118.5"
                          to="360 118.5 118.5"
                          dur="18s"
                          repeatCount="indefinite"/>
    </g>
</svg>
